<svg width="24" height="24" viewBox="0 0 24 24" fill="none" xmlns="http://www.w3.org/2000/svg">
<path d="M18.5653 20.6287L22.7553 13.3714C24.5753 10.219 23.781 7.25475 20.6286 5.43475L13.38 1.24975C10.219 -0.575248 7.25475 0.219027 5.43475 3.37136L1.24975 10.62C-0.570253 13.7723 0.224022 16.7366 3.37635 18.5566L10.6336 22.7466C13.781 24.5753 16.7453 23.781 18.5653 20.6287ZM7.6501 15.0542L6.07985 9.194C6.02861 9.00276 6.05433 8.79821 6.15433 8.62501C6.25433 8.4518 6.41861 8.32726 6.60985 8.27601L12.4701 6.70576C12.8663 6.59962 13.2819 6.83962 13.3881 7.23576C13.4942 7.63191 13.2542 8.0476 12.8581 8.15375L8.74635 9.25549L17.5712 14.3505C17.9262 14.5555 18.0507 15.0199 17.8457 15.375C17.6407 15.7301 17.1762 15.8545 16.8212 15.6495L7.99635 10.5545L9.09809 14.6663C9.20424 15.0624 8.96424 15.4781 8.56809 15.5842C8.36319 15.6392 8.16364 15.6048 7.9991 15.5098C7.83455 15.4148 7.70135 15.2455 7.6501 15.0542Z" fill="#292D32"/>
</svg>
