<svg width="24" height="24" viewBox="0 0 24 24" fill="none" xmlns="http://www.w3.org/2000/svg">
<path opacity="0.4" d="M13.3714 1.24476L20.6286 5.43476C23.781 7.25476 24.5753 10.219 22.7553 13.3714L18.5703 20.62C16.7453 23.781 13.781 24.5753 10.6286 22.7553L3.38001 18.5703C0.227682 16.7503 -0.566593 13.786 1.25341 10.6337L5.44341 3.37637C7.25475 0.219035 10.219 -0.57524 13.3714 1.24476Z" fill="#292D32"/>
<path d="M6.60985 8.27602L12.4701 6.70577C12.8662 6.59963 13.2819 6.83963 13.3881 7.23577C13.4942 7.63192 13.2542 8.04761 12.8581 8.15376L8.74635 9.2555L17.5711 14.3505C17.9262 14.5555 18.0507 15.0199 17.8457 15.375C17.6407 15.7301 17.1762 15.8545 16.8211 15.6495L7.99635 10.5545L9.09809 14.6663C9.20423 15.0624 8.96423 15.4781 8.56809 15.5843C8.36318 15.6392 8.16364 15.6048 7.99909 15.5098C7.83455 15.4148 7.705 15.2592 7.6501 15.0543L6.07985 9.19401C6.02861 9.00277 6.05432 8.79822 6.15432 8.62502C6.25432 8.45181 6.41861 8.32727 6.60985 8.27602Z" fill="#292D32"/>
</svg>
