<svg width="24" height="24" viewBox="0 0 24 24" fill="none" xmlns="http://www.w3.org/2000/svg">
<path d="M3.98926 7.375C4.08426 7.21046 4.23988 7.08091 4.44479 7.02601L12.7366 4.80424C13.1327 4.69809 13.5484 4.93809 13.6545 5.33424C13.7607 5.73038 13.5207 6.14608 13.1245 6.25222L5.55677 8.28L7.58455 15.8478C7.6907 16.2439 7.4507 16.6596 7.05455 16.7658C6.6584 16.8719 6.24271 16.6319 6.13656 16.2358L3.91479 7.944C3.85988 7.73909 3.89426 7.53955 3.98926 7.375Z" fill="#292D32"/>
<path d="M4.13649 7.46C4.34149 7.10493 4.80594 6.98048 5.16101 7.18548L19.7362 15.6005C20.0913 15.8055 20.2157 16.2699 20.0107 16.625C19.8057 16.9801 19.3413 17.1045 18.9862 16.8995L4.41101 8.48452C4.05594 8.27952 3.93149 7.81507 4.13649 7.46Z" fill="#292D32"/>
</svg>
